<svg width="22" height="22" viewBox="0 0 22 22" fill="none" xmlns="http://www.w3.org/2000/svg">
<g clip-path="url(#clip0_25_121)">
<path d="M17.3508 1.47808C17.8664 1.26323 18.4551 1.38354 18.8504 1.77456L21.6004 4.52456C21.8582 4.78237 22.0043 5.13042 22.0043 5.49565C22.0043 5.86089 21.8582 6.20894 21.6004 6.46675L18.8504 9.21675C18.4551 9.61206 17.8664 9.72808 17.3508 9.51323C16.8352 9.29839 16.5 8.79995 16.5 8.24136V6.87495H15.125C14.691 6.87495 14.2828 7.0769 14.025 7.42495L12.2031 9.85268L10.4844 7.56245L11.825 5.77495C12.6027 4.73511 13.8273 4.12495 15.125 4.12495H16.5V2.74995C16.5 2.19565 16.8352 1.69292 17.3508 1.47808ZM7.04688 12.1472L8.76563 14.4375L7.425 16.225C6.64727 17.2648 5.42266 17.875 4.125 17.875H1.375C0.614453 17.875 0 17.2605 0 16.5C0 15.7394 0.614453 15.125 1.375 15.125H4.125C4.55898 15.125 4.96719 14.923 5.225 14.575L7.04688 12.1472ZM18.8461 20.2253C18.4508 20.6207 17.8621 20.7367 17.3465 20.5218C16.8309 20.307 16.4957 19.8085 16.4957 19.25V17.875H15.125C13.8273 17.875 12.6027 17.2648 11.825 16.225L5.225 7.42495C4.96719 7.0769 4.55898 6.87495 4.125 6.87495H1.375C0.614453 6.87495 0 6.2605 0 5.49995C0 4.7394 0.614453 4.12495 1.375 4.12495H4.125C5.42266 4.12495 6.64727 4.73511 7.425 5.77495L14.025 14.575C14.2828 14.923 14.691 15.125 15.125 15.125H16.5V13.75C16.5 13.1957 16.8352 12.6929 17.3508 12.4781C17.8664 12.2632 18.4551 12.3835 18.8504 12.7746L21.6004 15.5246C21.8582 15.7824 22.0043 16.1304 22.0043 16.4957C22.0043 16.8609 21.8582 17.2089 21.6004 17.4667L18.8504 20.2167L18.8461 20.2253Z" fill="url(#paint0_linear_25_121)"/>
</g>
<defs>
<linearGradient id="paint0_linear_25_121" x1="11.0021" y1="1.37256" x2="11.0021" y2="20.6283" gradientUnits="userSpaceOnUse">
<stop stop-color="#FF00C7"/>
<stop offset="1" stop-color="#8B4ABE"/>
</linearGradient>
<clipPath id="clip0_25_121">
<rect width="22" height="22" fill="white"/>
</clipPath>
</defs>
</svg>
