<svg width="17" height="28" viewBox="0 0 17 28" fill="none" xmlns="http://www.w3.org/2000/svg">
<g clip-path="url(#clip0_25_123)">
<path d="M0.499373 8.23589C-0.16469 7.5523 -0.16469 6.44214 0.499373 5.75854C1.16344 5.07495 2.24187 5.07495 2.90594 5.75854L8.5 11.5226L14.0994 5.76401C14.7634 5.08042 15.8419 5.08042 16.5059 5.76401C17.17 6.44761 17.17 7.55776 16.5059 8.24136L10.9066 14L16.5006 19.764C17.1647 20.4476 17.1647 21.5578 16.5006 22.2414C15.8366 22.925 14.7581 22.925 14.0941 22.2414L8.5 16.4773L2.90062 22.2359C2.23656 22.9195 1.15812 22.9195 0.49406 22.2359C-0.170002 21.5523 -0.170002 20.4421 0.49406 19.7585L6.09344 14L0.499373 8.23589Z" fill="white"/>
</g>
<defs>
<clipPath id="clip0_25_123">
<rect width="17" height="28" fill="white" transform="matrix(-1 0 0 1 17 0)"/>
</clipPath>
</defs>
</svg>
